<svg xmlns="http://www.w3.org/2000/svg" height="24" width="24" viewBox="0 0 24 24"><title>calendar event 2</title><g fill="#ff9900" class="nc-icon-wrapper"><path data-color="color-2" d="M10.707,18.707a1,1,0,0,1-1.414,0l-3-3,1.414-1.414L10,16.586l6.293-6.293,1.414,1.414Z"></path> <path data-color="color-2" d="M19,3V1a1,1,0,0,0-2,0V3Z"></path> <path data-color="color-2" d="M7,3V1A1,1,0,0,0,5,1V3Z"></path> <path d="M21,23H3a3,3,0,0,1-3-3V7A3,3,0,0,1,3,4H21a3,3,0,0,1,3,3V20A3,3,0,0,1,21,23ZM22,9H2V20a1,1,0,0,0,1,1H21a1,1,0,0,0,1-1Z" fill="#ff9900"></path></g></svg>