<svg xmlns="http://www.w3.org/2000/svg" height="48" width="48" viewBox="0 0 48 48"><title>download data</title><g fill="#626262" class="nc-icon-wrapper"><path data-color="color-2" d="M20,3h8c0.553,0,1-0.448,1-1s-0.447-1-1-1h-8c-0.553,0-1,0.448-1,1S19.447,3,20,3z"></path> <path data-color="color-2" d="M20,47h8c0.553,0,1-0.448,1-1s-0.447-1-1-1h-8c-0.553,0-1,0.448-1,1S19.447,47,20,47z"></path> <path data-color="color-2" d="M2,29c0.553,0,1-0.448,1-1v-8c0-0.552-0.447-1-1-1s-1,0.448-1,1v8C1,28.552,1.447,29,2,29z"></path> <path data-color="color-2" d="M46,19c-0.553,0-1,0.448-1,1v8c0,0.552,0.447,1,1,1s1-0.448,1-1v-8 C47,19.448,46.553,19,46,19z"></path> <path data-color="color-2" d="M2,11c0.553,0,1-0.448,1-1V3h7c0.553,0,1-0.448,1-1s-0.447-1-1-1H2C1.447,1,1,1.448,1,2v8 C1,10.552,1.447,11,2,11z"></path> <path data-color="color-2" d="M46,1h-8c-0.553,0-1,0.448-1,1s0.447,1,1,1h7v7c0,0.552,0.447,1,1,1s1-0.448,1-1V2 C47,1.448,46.553,1,46,1z"></path> <path data-color="color-2" d="M46,37c-0.553,0-1,0.448-1,1v7h-7c-0.553,0-1,0.448-1,1s0.447,1,1,1h8c0.553,0,1-0.448,1-1 v-8C47,37.448,46.553,37,46,37z"></path> <path data-color="color-2" d="M2,47h8c0.553,0,1-0.448,1-1s-0.447-1-1-1H3v-7c0-0.552-0.447-1-1-1s-1,0.448-1,1v8 C1,46.552,1.447,47,2,47z"></path> <path fill="#626262" d="M33.914,27.593C33.753,27.232,33.395,27,33,27h-7V10c0-0.552-0.448-1-1-1h-2c-0.552,0-1,0.448-1,1v17h-7 c-0.395,0-0.753,0.232-0.914,0.593c-0.161,0.359-0.094,0.781,0.17,1.076l9,10C23.446,38.88,23.716,39,24,39s0.554-0.12,0.743-0.331 l9-10C33.912,28.481,34,28.242,34,28C34,27.862,33.972,27.724,33.914,27.593z"></path></g></svg>