<svg xmlns="http://www.w3.org/2000/svg" height="48" width="48" viewBox="0 0 48 48"><title>image delete</title><g fill="#ffffff" class="nc-icon-wrapper"><path fill="#ffffff" d="M25,41H3V3h38v22c0,0.552,0.447,1,1,1s1-0.448,1-1V2c0-0.552-0.447-1-1-1H2C1.447,1,1,1.448,1,2v40 c0,0.552,0.447,1,1,1h23c0.553,0,1-0.448,1-1S25.553,41,25,41z"></path> <circle fill="#ffffff" cx="13" cy="13" r="4"></circle> <path fill="#ffffff" d="M34.293,26.35l-5.398-10.797c-0.142-0.284-0.41-0.483-0.723-0.538c-0.307-0.056-0.632,0.042-0.861,0.261 l-21,20c-0.296,0.282-0.391,0.716-0.239,1.096C6.224,36.751,6.591,37,7,37h19C26,31.861,29.529,27.557,34.293,26.35z"></path> <path data-color="color-2" d="M37,28c-4.971,0-9,4.029-9,9s4.029,9,9,9s9-4.029,9-9S41.971,28,37,28z M41,38h-8 c-0.552,0-1-0.448-1-1s0.448-1,1-1h8c0.552,0,1,0.448,1,1S41.552,38,41,38z"></path></g></svg>