<svg xmlns="http://www.w3.org/2000/svg" height="64" width="64" viewBox="0 0 64 64"><title>multiple 19</title><g fill="#000000" class="nc-icon-wrapper"><path data-color="color-2" d="M47,31c5.539,0,10-6.565,10-12c0-5.514-4.486-10-10-10s-10,4.486-10,10 C37,24.435,41.461,31,47,31z"></path> <path fill="#000000" d="M21,33c6.758,0,12-7.526,12-14c0-6.617-5.383-12-12-12S9,12.383,9,19C9,25.474,14.242,33,21,33z"></path> <path data-color="color-2" d="M58.628,39.184C56.127,38.188,52.079,37,47,37s-9.127,1.188-11.628,2.184 c-0.25,0.1-0.488,0.222-0.723,0.349c0.806,0.32,1.555,0.644,2.199,0.958C40.585,42.312,43,46.189,43,50.37V51h19 c0.553,0,1-0.448,1-1v-4.324C63,42.791,61.284,40.242,58.628,39.184z"></path> <path fill="#000000" d="M35.972,42.289C32.893,40.789,27.795,39,21,39S9.107,40.789,6.028,42.289C2.974,43.777,1,46.949,1,50.37V56 c0,0.552,0.447,1,1,1h38c0.553,0,1-0.448,1-1v-5.63C41,46.949,39.026,43.777,35.972,42.289z"></path></g></svg>